# xmcd
#
# Track frame offsets:
#	150
#	14689
#	26016
#	40461
#	54851
#	64858
#	76924
#	90668
#	103683
#	114130
#	127234
#	140003
#	151398
#	162630
#
# Disc length: 2371 seconds
#
# Revision: 1
# Processed by: cddbd v1.5.2PL0 Copyright (c) Steve Scherf et al.
# Submitted via: audiograbber 1.83.01
#
DISCID=bd09410e
DTITLE=Bobby Flores - Direct from Blanco County
DYEAR=2006
DGENRE=Country
TTITLE0=I Didn't Realize
TTITLE1=Darkness on the Face of the Earth
TTITLE2=Four in the Morning
TTITLE3=Different Kind of Flower
TTITLE4=Rose Colored Glasses
TTITLE5=Don't Say Love (or Nothing)
TTITLE6=I've Got a New Road Under My Wheels
TTITLE7=He'll Let You Live a Little
TTITLE8=Burning a Hole in My Mind
TTITLE9=Shoes of a Fool
TTITLE10=Jealous Heart
TTITLE11=Waltz of the Tumbleweed
TTITLE12=Meanest Jukebox in Town
TTITLE13=A Maiden's Prayer
EXTD=
EXTT0=
EXTT1=
EXTT2=
EXTT3=
EXTT4=
EXTT5=
EXTT6=
EXTT7=
EXTT8=
EXTT9=
EXTT10=
EXTT11=
EXTT12=
EXTT13=
PLAYORDER=
